<svg viewBox="0 0 57 36" fill="#ffffff" xmlns="http://www.w3.org/2000/svg">
    <path id="Vector"
          d="M36.6595 12.7259C37.9895 11.5799 39.4465 10.6569 41.0295 9.76887C33.5115 9.31087 26.0715 9.23587 18.6075 9.82887C20.0255 10.7329 21.4425 11.6179 22.7075 12.7389C22.4275 12.7469 22.1985 12.5859 21.9695 12.4739C20.8295 11.9139 19.6625 11.4219 18.4875 10.9409C17.8805 10.6929 17.2635 10.4759 16.6525 10.2419C15.7276 9.8846 14.7847 9.57617 13.8275 9.31787C13.5475 9.24287 13.2635 9.16587 12.9915 9.07487C11.6685 8.63087 10.2855 8.61487 8.92746 8.42187C7.86446 8.27187 6.78746 8.28787 5.72646 8.08487C5.21646 7.98687 4.69546 7.97787 4.18646 7.81587C3.38846 7.56187 3.46546 6.84387 3.93446 6.36887C4.45846 5.83887 5.12446 5.69287 5.78946 5.51687C6.53081 5.31305 7.30596 5.26269 8.06746 5.36887C8.40746 5.41887 8.61246 5.65887 8.67746 6.00087C8.76546 6.45687 8.98946 6.80887 9.37246 7.06687C9.65646 7.25787 9.98246 7.29887 10.2955 7.38687C10.4625 7.43287 10.5725 7.30387 10.6655 7.19187C11.5565 6.10815 12.5133 5.08021 13.5305 4.11387C14.5015 3.20087 15.5405 2.38087 16.7805 1.85587C17.7005 1.46687 18.6315 1.11487 19.6005 0.900869C20.7605 0.644869 21.9375 0.471869 23.1195 0.315869C25.4715 0.00286901 27.8295 -0.00913102 30.1855 0.00286898C31.8725 0.010869 33.5665 -0.045131 35.2485 0.132869C36.3125 0.245869 37.3785 0.336869 38.4385 0.529869C39.5745 0.736869 40.6955 0.997869 41.7635 1.42387C42.8305 1.85067 43.8289 2.43224 44.7265 3.14987C45.7735 3.98487 46.6665 4.98687 47.6255 5.91487C48.0265 6.30387 48.3595 6.76587 48.7095 7.20587C48.8355 7.36287 48.9775 7.42987 49.1565 7.37887C49.6065 7.24887 50.0595 7.13787 50.3965 6.74487C50.4989 6.62576 50.5713 6.48378 50.6075 6.33087C50.8615 5.32387 51.2775 5.30287 52.1835 5.30587C52.9095 5.30787 53.5995 5.52687 54.2955 5.68587C54.8955 5.82287 55.3865 6.21787 55.7425 6.73387C55.9725 7.06687 55.7215 7.59787 55.3495 7.75887C54.7525 8.01787 54.1225 8.05487 53.4955 8.11687C51.8805 8.27687 50.2625 8.41487 48.6495 8.58887C48.0835 8.65087 47.5145 8.75087 46.9675 8.90487C45.6831 9.26576 44.4104 9.66729 43.1515 10.1089C41.7015 10.6189 40.2815 11.1989 38.8615 11.7819C38.1915 12.0579 37.5505 12.4069 36.8975 12.7259C36.8275 12.7609 36.7685 12.7949 36.6595 12.7259ZM38.0565 1.70387C38.0535 1.80587 38.1005 1.82187 38.1425 1.84487C38.6845 2.14187 38.9625 2.83187 38.5505 3.53187C38.1725 4.17387 37.5685 4.58787 37.0805 5.11887C36.5745 5.67087 36.1045 6.22487 35.8115 6.93287C35.5615 7.53887 35.8315 8.13887 36.5785 8.29087C37.0705 8.39087 37.5685 8.43687 38.0645 8.47587C39.5055 8.58887 40.9465 8.60987 42.3825 8.39087C43.1625 8.27087 43.9485 8.18787 44.7305 8.07587C45.4905 7.96687 46.2255 7.74287 46.9835 7.63587C47.1875 7.60787 47.1915 7.52387 47.0945 7.37087C46.9075 7.07387 46.7415 6.76287 46.5415 6.47487C45.7315 5.30987 44.8125 4.24287 43.6995 3.36787C43.2005 2.97587 42.6465 2.64787 42.0515 2.45387C41.2255 2.18287 40.3905 1.92587 39.5155 1.84887C39.0325 1.80487 38.5595 1.64487 38.0565 1.70387ZM30.1665 8.28387C30.9585 8.28387 31.6685 8.26787 32.3765 8.29187C32.6235 8.29987 32.7105 8.19787 32.7795 7.99087C32.9695 7.42087 33.2015 6.86887 33.6015 6.41687C34.1735 5.77187 34.8975 5.31687 35.5815 4.81087C36.2355 4.32587 36.9985 3.98087 37.4825 3.27087C37.7655 2.85787 37.6995 2.57087 37.2405 2.33387C37.1075 2.97287 37.0385 3.12687 36.7905 3.36687C36.1725 3.96687 35.3865 4.27687 34.6205 4.59287C33.8765 4.90087 33.1275 5.16187 32.4405 5.61887C31.4475 6.27887 30.7465 7.16087 30.1665 8.28387ZM50.4065 27.2249C48.9135 27.2499 47.7765 27.1749 46.6895 26.8349C45.5215 26.4699 44.4445 25.9129 43.8175 24.7469C43.5415 24.2349 43.4495 23.6749 43.4555 23.1019C43.4532 22.3039 43.7484 21.5338 44.2835 20.9419C44.7955 20.3699 45.4535 20.0249 46.1545 19.7319C47.7515 19.0649 49.4205 19.1259 51.0865 19.1609C52.1225 19.1829 53.1425 19.3589 54.1035 19.7659C55.0055 20.1479 55.8035 20.6959 56.2905 21.5929C56.5895 22.1429 56.6805 22.7589 56.6515 23.3859C56.6085 24.3179 56.2285 25.1029 55.5435 25.6999C54.8685 26.2879 54.0685 26.6309 53.2055 26.8809C52.1635 27.1829 51.1075 27.1809 50.4065 27.2249ZM50.1725 25.7589C50.5585 25.8199 51.0825 25.7019 51.5795 25.5649C52.1135 25.4179 52.6065 25.1309 52.9265 24.6099C53.3325 23.9499 53.3705 23.2689 53.2445 22.5139C53.0805 21.5429 52.4315 21.0729 51.6315 20.8179C50.9063 20.5891 50.1386 20.5282 49.3865 20.6399C48.6745 20.7429 47.9585 20.8709 47.4265 21.4109C46.8005 22.0479 46.7225 22.8609 46.8395 23.7109C46.9021 24.2443 47.1736 24.7312 47.5945 25.0649C48.3125 25.6449 49.1575 25.7339 50.1725 25.7589ZM15.9565 22.0329C15.9565 21.2349 15.9625 20.4359 15.9525 19.6379C15.9495 19.4119 15.9845 19.3059 16.2475 19.3119C17.0795 19.3329 17.9125 19.3349 18.7445 19.3179C18.9985 19.3129 19.0465 19.3979 19.0445 19.6339C19.0365 21.1189 19.0575 22.6039 19.0345 24.0879C19.0235 24.8479 19.6585 25.4579 20.3425 25.5929C21.1565 25.7549 21.9555 25.7729 22.7745 25.5989C23.5575 25.4309 24.0155 25.0639 24.1175 24.2729C24.1445 24.0629 24.1715 23.8519 24.1725 23.6409C24.1775 22.3179 24.1825 20.9949 24.1695 19.6729C24.1665 19.3999 24.2255 19.3069 24.5125 19.3149C25.3075 19.3379 26.1025 19.3329 26.8985 19.3199C27.1405 19.3169 27.2485 19.3619 27.2445 19.6419C27.2145 21.2509 27.2655 22.8599 27.2015 24.4699C27.1735 25.1809 26.7485 25.6529 26.3015 26.1179C25.6895 26.7539 24.8715 26.9279 24.0715 27.0619C23.0095 27.2399 21.9315 27.2479 20.8545 27.2059C19.9535 27.1699 19.0595 27.1049 18.1785 26.8659C17.1075 26.5769 15.9185 25.4519 15.9525 24.2049C15.9725 23.4819 15.9555 22.7569 15.9555 22.0339L15.9565 22.0329ZM13.5485 27.0259C12.4625 27.0259 11.4385 27.0409 10.4145 27.0179C10.0805 27.0109 10.0525 26.6249 9.90246 26.4099C9.77683 26.2446 9.67578 26.0621 9.60246 25.8679C9.54646 25.6979 9.39046 25.5769 9.14546 25.5799C7.73846 25.5969 6.33146 25.5899 4.92546 25.5869C4.77346 25.5869 4.69146 25.6209 4.58546 25.7699C4.42846 25.9909 4.27946 26.2299 4.17946 26.4649C3.99046 26.9109 3.71946 27.0579 3.25446 27.0369C2.48446 27.0009 1.71246 27.0279 0.942458 27.0259C0.849458 27.0259 0.725458 27.0719 0.672458 26.9759C0.618458 26.8789 0.714458 26.7939 0.767458 26.7119C1.34546 25.8149 1.92546 24.9189 2.50146 24.0199C3.07846 23.1189 3.65146 22.2149 4.22546 21.3109C4.60846 20.7089 4.99546 20.1109 5.36946 19.5019C5.45946 19.3549 5.55946 19.3169 5.72346 19.3179C6.59146 19.3289 7.46046 19.3349 8.32946 19.3179C8.55846 19.3139 8.69046 19.4069 8.80246 19.5829C9.40246 20.5229 10.0085 21.4609 10.6025 22.4039C11.0785 23.1579 11.5325 23.9249 12.0115 24.6759C12.4985 25.4429 13.0035 26.1959 13.5485 27.0259ZM7.06146 21.3439C6.54146 22.2389 6.05646 23.0779 5.56246 23.9119C5.51246 23.9969 5.42046 24.0619 5.46246 24.1709C5.51246 24.2989 5.63246 24.2389 5.71946 24.2399C6.61246 24.2449 7.50646 24.2329 8.39946 24.2479C8.73146 24.2529 8.66546 24.1009 8.56146 23.9199C8.38646 23.6159 8.19746 23.3209 8.02146 23.0179C7.70946 22.4809 7.40246 21.9399 7.06146 21.3439ZM35.5765 19.3349C37.3135 19.3349 39.0525 19.3429 40.7905 19.3269C41.0535 19.3239 41.0985 19.4119 41.0845 19.6419C41.0685 19.9149 41.0635 20.1919 41.0845 20.4649C41.1035 20.7259 41.0185 20.8039 40.7585 20.7999C39.6685 20.7859 38.5795 20.8059 37.4905 20.7889C37.1975 20.7839 37.1225 20.8689 37.1245 21.1649C37.1375 22.9999 37.1245 24.8349 37.1355 26.6689C37.1375 26.9379 37.0835 27.0389 36.7965 27.0319C35.9889 27.011 35.181 27.01 34.3735 27.0289C34.0975 27.0349 34.0235 26.9579 34.0245 26.6759C34.0365 24.8419 34.0225 23.0059 34.0395 21.1719C34.0425 20.8489 33.9455 20.7839 33.6495 20.7879C32.5725 20.8049 31.4945 20.7869 30.4175 20.7989C30.1645 20.8019 30.0235 20.7669 30.0595 20.4619C30.1035 20.0949 29.9045 19.6009 30.1415 19.3899C30.3455 19.2079 30.8165 19.3299 31.1685 19.3299C32.6385 19.3279 34.1065 19.3299 35.5755 19.3299L35.5765 19.3349ZM13.8255 30.6079C14.5355 30.6079 15.2465 30.5739 15.9535 30.6159C16.9335 30.6759 17.8745 30.8979 18.6395 31.5879C19.0755 31.9829 19.3295 32.4639 19.3435 33.0859C19.3565 33.6899 19.2685 34.2229 18.8435 34.6879C18.3905 35.1849 17.8355 35.4639 17.2075 35.6219C15.2925 36.1019 13.3405 35.8589 11.4045 35.9219C11.1685 35.9289 11.1185 35.8309 11.1195 35.6139C11.1255 34.0419 11.1265 32.4699 11.1145 30.8979C11.1135 30.6639 11.1805 30.5999 11.4035 30.6029C12.2105 30.6149 13.0185 30.6079 13.8255 30.6079ZM13.2585 33.2369V34.6209C13.2585 34.7459 13.2425 34.8759 13.4325 34.8769C14.3935 34.8779 15.3625 34.9549 16.2825 34.5619C16.5835 34.4329 16.8155 34.1969 16.9465 33.9149C17.4035 32.9269 16.6315 31.7009 15.5335 31.6569C14.8735 31.6309 14.2135 31.6469 13.5535 31.6299C13.3335 31.6249 13.2475 31.6959 13.2545 31.9279C13.2685 32.3639 13.2585 32.7999 13.2575 33.2369H13.2585ZM25.2015 35.9139C24.1115 35.9139 23.0235 35.9069 21.9345 35.9189C21.6825 35.9219 21.6025 35.8559 21.6045 35.5869C21.6186 34.0402 21.6186 32.4935 21.6045 30.9469C21.6005 30.6569 21.6905 30.6019 21.9545 30.6029C24.0965 30.6139 26.2375 30.6149 28.3795 30.6029C28.6655 30.5999 28.7525 30.6719 28.7415 30.9719C28.7165 31.6319 28.7335 31.6329 28.0685 31.6339C26.7345 31.6339 25.4005 31.6379 24.0665 31.6269C23.8205 31.6239 23.7305 31.6799 23.7345 31.9529C23.7445 32.7089 23.7325 32.7079 24.4745 32.7069C25.5625 32.7069 26.6515 32.7169 27.7405 32.6999C28.0275 32.6959 28.1445 32.7799 28.1055 33.0719C28.0966 33.1463 28.0969 33.2215 28.1065 33.2959C28.1385 33.5779 28.0435 33.6819 27.7425 33.6759C26.5325 33.6569 25.3205 33.6739 24.1095 33.6609C23.8425 33.6579 23.7235 33.7049 23.7285 34.0189C23.7405 34.8789 23.7245 34.8789 24.5665 34.8789C25.8755 34.8789 27.1845 34.8849 28.4945 34.8719C28.7535 34.8689 28.8245 34.9449 28.8205 35.2059C28.8105 35.9159 28.8235 35.9159 28.1385 35.9159H25.2015V35.9129V35.9139ZM48.1855 30.6989C47.6115 31.0319 47.0325 31.3579 46.4645 31.7009C45.8995 32.0429 45.3455 32.4039 44.7575 32.7739L48.5575 35.8289L48.5225 35.9129C47.7105 35.9129 46.8965 35.9419 46.0875 35.8979C45.7805 35.8809 45.5945 35.5389 45.3535 35.3489C44.7655 34.8849 44.2075 34.3789 43.6415 33.8859C43.4215 33.6939 43.2575 33.5999 42.9265 33.7819C42.4525 34.0419 42.1685 34.3019 42.2415 34.8969C42.2815 35.2169 42.3995 35.6659 42.1755 35.8569C41.9855 36.0189 41.5695 35.9109 41.2535 35.9149C40.9595 35.9189 40.6665 35.9049 40.3735 35.9169C40.1785 35.9239 40.1235 35.8489 40.1255 35.6559C40.1315 34.0589 40.1315 32.4619 40.1255 30.8659C40.1255 30.6799 40.1635 30.5989 40.3655 30.6039C40.9155 30.6169 41.4675 30.6169 42.0175 30.6039C42.2195 30.5989 42.2615 30.6759 42.2585 30.8639C42.2485 31.4619 42.2555 32.0609 42.2555 32.7099C42.7595 32.4059 43.2335 32.1299 43.6995 31.8369C44.3235 31.4459 44.9395 31.0409 45.5625 30.6469C45.6153 30.6187 45.6747 30.6053 45.7345 30.6079C46.5405 30.6059 47.3455 30.6069 48.1505 30.6069L48.1845 30.6979L48.1855 30.6989ZM34.1925 35.9969C33.2805 35.9919 32.3605 35.9999 31.5025 35.6179C30.9495 35.3729 30.4525 35.0649 30.3295 34.3759C30.2945 34.1819 30.3205 34.1309 30.5055 34.1319C31.0935 34.1379 31.6815 34.1329 32.2695 34.1349C32.3515 34.1349 32.4635 34.1179 32.4755 34.2349C32.5335 34.8369 33.0115 34.9209 33.4375 35.0069C34.1106 35.1486 34.8096 35.1058 35.4605 34.8829C35.6665 34.8109 35.8355 34.6829 35.8505 34.4859C35.8665 34.2689 35.7035 34.1359 35.4905 34.0329C34.8465 33.7209 34.1395 33.7479 33.4635 33.6169C32.8335 33.4959 32.1985 33.4219 31.5795 33.2319C30.9005 33.0239 30.4385 32.2699 30.6685 31.6039C30.7785 31.2879 31.0395 31.0579 31.3385 30.9269C32.4495 30.4369 33.6265 30.3549 34.8135 30.4309C35.5015 30.4749 36.1855 30.5639 36.8235 30.8949C37.2065 31.0939 37.4605 31.3789 37.6535 31.7469C37.7395 31.9129 37.7335 32.0289 37.4945 32.0259C36.9445 32.0179 36.3925 32.0219 35.8415 32.0229C35.7545 32.0229 35.6625 32.0249 35.6265 31.9229C35.4725 31.4829 35.0725 31.4809 34.7285 31.4409C34.3295 31.3949 33.9215 31.4329 33.5185 31.4269C33.2445 31.4239 33.0165 31.5629 32.8185 31.7099C32.6625 31.8249 32.6285 32.0119 32.8365 32.2019C33.1945 32.5279 33.6375 32.4669 34.0465 32.5449C34.9195 32.7109 35.8165 32.7089 36.6755 32.9869C36.9905 33.0889 37.2905 33.2049 37.5575 33.3909C38.2595 33.8809 38.1515 34.8709 37.3375 35.3919C36.6275 35.8479 35.8195 35.9549 35.0005 35.9939C34.7315 36.0059 34.4625 35.9959 34.1925 35.9959V35.9969ZM15.7365 16.5199C15.2105 16.5419 14.7095 16.4139 14.2005 16.3749C13.0815 16.2899 11.9775 16.0959 10.8745 15.9079C9.85046 15.7329 8.81946 15.5469 7.84446 15.1629C7.06046 14.8549 6.35846 14.4419 5.90446 13.6529C5.45946 12.8839 5.70946 12.2209 6.07946 11.5569C6.20946 11.3219 6.39846 11.1259 6.63746 10.9709C7.28046 10.5559 7.77546 10.8829 8.23746 11.2879C8.96846 11.9279 9.74546 12.5029 10.5205 13.0809C11.4875 13.8009 12.4965 14.4569 13.5165 15.0939C14.1945 15.5169 14.8945 15.9059 15.5845 16.3089C15.6225 16.3322 15.6554 16.3631 15.6812 16.3995C15.707 16.4359 15.7251 16.4772 15.7345 16.5209H15.7355L15.7365 16.5199ZM43.7005 16.5099C43.7055 16.2769 43.8905 16.3329 43.9925 16.2669C45.4245 15.3399 46.9065 14.4949 48.2975 13.4979C49.2035 12.8489 50.0715 12.1489 50.9675 11.4879C51.1685 11.3409 51.3215 11.1179 51.5325 10.9939C52.3255 10.5279 52.9525 10.8959 53.3925 11.7079C53.5515 12.0029 53.7065 12.3199 53.7225 12.6859C53.7595 13.5739 53.2525 14.1529 52.6255 14.6169C52.0595 15.0379 51.3735 15.2549 50.7055 15.4539C50.0915 15.6359 49.4515 15.7239 48.8215 15.8449C47.6135 16.0759 46.4025 16.2829 45.1745 16.3689C44.6885 16.4039 44.2145 16.5609 43.7005 16.5099Z"
    />
</svg>
