<svg viewBox="0 0 57 36" fill="#fff" xmlns="http://www.w3.org/2000/svg"><path id="Vector" d="M36.66 12.726c1.33-1.146 2.787-2.07 4.37-2.957-7.519-.458-14.959-.533-22.422.06 1.418.904 2.834 1.789 4.1 2.91-.28.008-.51-.153-.738-.265-1.14-.56-2.307-1.052-3.482-1.533-.607-.248-1.224-.465-1.835-.7a28.298 28.298 0 0 0-2.825-.923 14.36 14.36 0 0 1-.836-.243c-1.324-.444-2.707-.46-4.065-.653-1.063-.15-2.14-.134-3.2-.337-.51-.098-1.032-.107-1.54-.27-.799-.253-.722-.971-.253-1.446.524-.53 1.19-.676 1.855-.852a5.65 5.65 0 0 1 2.278-.148c.34.05.545.29.61.632.088.456.312.808.695 1.066.284.19.61.232.924.32.167.046.277-.083.37-.195a34.23 34.23 0 0 1 2.864-3.078c.972-.913 2.01-1.733 3.25-2.258.92-.39 1.851-.741 2.82-.955 1.16-.256 2.337-.43 3.52-.585C25.47.003 27.83-.01 30.185.003c1.686.008 3.38-.048 5.063.13 1.063.113 2.13.204 3.19.397 1.136.207 2.257.468 3.325.894a11.709 11.709 0 0 1 2.962 1.726c1.047.835 1.94 1.837 2.9 2.765.4.389.733.85 1.084 1.29.126.158.267.225.447.174.45-.13.903-.241 1.24-.634a.982.982 0 0 0 .21-.414c.255-1.007.67-1.028 1.577-1.025.726.002 1.416.22 2.111.38.6.137 1.091.532 1.447 1.048.23.333-.02.864-.392 1.025-.598.259-1.227.296-1.855.358-1.614.16-3.232.298-4.845.472-.566.062-1.136.162-1.682.316-1.285.36-2.558.762-3.817 1.204-1.45.51-2.87 1.09-4.29 1.673-.67.276-1.31.625-1.963.944-.07.035-.13.069-.239 0Zm1.397-11.022c-.004.102.043.118.085.14.542.298.82.988.408 1.688-.377.642-.981 1.056-1.47 1.587-.505.552-.975 1.106-1.268 1.814-.25.606.02 1.206.767 1.358.492.1.99.146 1.486.185 1.44.113 2.882.134 4.318-.085.78-.12 1.566-.203 2.347-.315.76-.11 1.495-.333 2.254-.44.203-.028.207-.112.11-.265-.187-.297-.352-.608-.553-.896-.81-1.165-1.728-2.232-2.841-3.107-.5-.392-1.053-.72-1.649-.914-.826-.271-1.66-.528-2.535-.605-.483-.044-.956-.204-1.46-.145Zm-7.89 6.58c.791 0 1.502-.016 2.21.008.246.008.334-.094.402-.301.19-.57.422-1.122.822-1.574.572-.645 1.297-1.1 1.98-1.606.654-.485 1.417-.83 1.901-1.54.284-.413.218-.7-.242-.937-.133.639-.202.793-.45 1.033-.617.6-1.404.91-2.17 1.226-.743.308-1.492.569-2.18 1.026-.992.66-1.693 1.542-2.273 2.665Zm20.24 18.94c-1.493.026-2.63-.05-3.717-.39-1.168-.364-2.245-.921-2.872-2.087-.276-.512-.368-1.072-.362-1.645a3.207 3.207 0 0 1 .827-2.16c.512-.572 1.17-.917 1.871-1.21 1.597-.667 3.266-.606 4.932-.571 1.037.022 2.056.198 3.017.605.902.382 1.7.93 2.188 1.827.299.55.39 1.166.36 1.793-.043.932-.423 1.717-1.108 2.314-.675.588-1.474.93-2.337 1.18-1.043.303-2.099.3-2.8.345Zm-.234-1.465c.386.06.91-.057 1.407-.194.534-.147 1.026-.434 1.346-.955.407-.66.444-1.341.319-2.096-.164-.971-.813-1.441-1.613-1.696a5.014 5.014 0 0 0-2.245-.178c-.712.103-1.428.23-1.96.77-.627.638-.705 1.45-.587 2.3a2.03 2.03 0 0 0 .754 1.355c.718.58 1.563.669 2.578.694Zm-34.217-3.726c0-.798.007-1.597-.003-2.395-.003-.226.032-.332.294-.326a54.7 54.7 0 0 0 2.497.006c.255-.005.303.08.3.316-.008 1.485.014 2.97-.01 4.454-.01.76.625 1.37 1.309 1.505.814.162 1.613.18 2.431.006.784-.168 1.241-.535 1.343-1.326.027-.21.055-.421.055-.632.005-1.323.01-2.646-.003-3.968-.003-.273.056-.366.343-.358.796.023 1.59.018 2.386.005.242-.003.35.042.346.322-.03 1.609.021 3.218-.043 4.828-.027.71-.453 1.183-.9 1.648-.611.636-1.43.81-2.23.944-1.062.178-2.14.186-3.216.144-.902-.036-1.796-.101-2.677-.34-1.07-.29-2.26-1.414-2.226-2.661.02-.723.004-1.448.004-2.171v-.001Zm-2.407 4.993c-1.086 0-2.11.015-3.134-.008-.334-.007-.362-.393-.513-.608a2.152 2.152 0 0 1-.3-.542c-.056-.17-.212-.291-.457-.288-1.407.017-2.814.01-4.22.007-.152 0-.234.034-.34.183-.157.22-.306.46-.406.695-.189.446-.46.593-.925.572-.77-.036-1.542-.01-2.312-.011-.093 0-.217.046-.27-.05-.054-.097.042-.182.095-.264.578-.897 1.158-1.793 1.734-2.692.577-.901 1.15-1.805 1.724-2.71.383-.601.77-1.2 1.144-1.808.09-.147.19-.185.354-.184.868.01 1.737.017 2.606 0 .23-.004.361.089.473.265.6.94 1.207 1.878 1.8 2.82.476.755.93 1.522 1.41 2.273.486.767.992 1.52 1.537 2.35ZM7.06 21.344c-.52.895-1.005 1.734-1.499 2.568-.05.085-.142.15-.1.259.05.128.17.068.257.069.893.005 1.787-.007 2.68.008.332.005.266-.147.162-.328-.175-.304-.364-.6-.54-.902-.312-.537-.619-1.078-.96-1.674Zm28.516-2.01c1.736 0 3.476.009 5.214-.007.263-.003.308.085.294.315-.017.273-.022.55 0 .823.018.26-.066.339-.327.335-1.09-.014-2.178.006-3.268-.011-.293-.005-.367.08-.366.376.014 1.835 0 3.67.011 5.504.003.269-.051.37-.338.363a49.178 49.178 0 0 0-2.423-.003c-.277.006-.35-.071-.35-.353.012-1.834-.002-3.67.015-5.504.003-.323-.093-.388-.39-.384-1.077.017-2.155-.001-3.232.01-.253.004-.394-.031-.358-.336.044-.367-.155-.861.082-1.072.205-.182.676-.06 1.028-.06 1.47-.002 2.937 0 4.406 0l.002.005ZM13.825 30.609c.71 0 1.421-.034 2.129.008.98.06 1.92.282 2.686.972.436.395.69.876.703 1.498.014.604-.075 1.137-.5 1.602-.453.497-1.008.776-1.636.934-1.915.48-3.867.237-5.803.3-.236.007-.286-.091-.284-.308.006-1.572.007-3.144-.005-4.716-.002-.234.066-.298.288-.295.807.012 1.615.005 2.422.005Zm-.566 2.629v1.384c0 .125-.017.255.173.256.961 0 1.93.078 2.85-.315.302-.13.534-.365.665-.647.457-.988-.316-2.214-1.413-2.258-.66-.026-1.32-.01-1.98-.027-.22-.005-.306.066-.3.298.014.436.005.872.004 1.309ZM25.2 35.914c-1.09 0-2.178-.007-3.267.005-.252.003-.332-.063-.33-.332.015-1.547.015-3.094 0-4.64-.003-.29.087-.345.35-.344 2.142.01 4.284.012 6.425 0 .287-.003.373.069.362.369-.024.66-.008.66-.672.662-1.334 0-2.668.004-4.002-.007-.247-.003-.337.053-.332.326.01.756-.002.755.74.754 1.087 0 2.176.01 3.265-.007.288-.004.405.08.366.372a.908.908 0 0 0 0 .224c.032.282-.063.386-.364.38-1.21-.02-2.422-.002-3.633-.015-.267-.003-.386.044-.38.358.012.86-.005.86.838.86 1.308 0 2.617.006 3.927-.007.26-.003.33.073.326.334-.01.71.003.71-.681.71H25.2v-.003Zm22.984-5.215c-.574.333-1.153.659-1.72 1.002-.566.342-1.12.703-1.708 1.073l3.8 3.055-.035.084c-.811 0-1.625.029-2.434-.015-.307-.017-.494-.36-.735-.55-.587-.463-1.145-.97-1.712-1.462-.22-.192-.383-.286-.715-.104-.474.26-.758.52-.684 1.115.04.32.158.769-.066.96-.19.162-.607.054-.922.058-.294.004-.587-.01-.88.002-.196.007-.25-.068-.248-.261.006-1.597.006-3.194 0-4.79 0-.186.038-.267.24-.262.55.013 1.102.013 1.651 0 .202-.005.244.072.241.26-.01.598-.003 1.197-.003 1.846.505-.304.978-.58 1.444-.873.625-.391 1.24-.796 1.864-1.19a.334.334 0 0 1 .171-.04h2.416l.035.09v.002Zm-13.992 5.298c-.912-.005-1.832.003-2.69-.38-.553-.244-1.05-.552-1.174-1.241-.035-.194-.009-.245.177-.244.587.006 1.175 0 1.764.003.081 0 .194-.017.205.1.058.602.536.686.962.772a3.817 3.817 0 0 0 2.024-.124c.206-.072.375-.2.39-.397.016-.217-.148-.35-.36-.453-.645-.312-1.352-.285-2.027-.416-.63-.121-1.265-.195-1.884-.385-.68-.208-1.141-.962-.911-1.628.11-.316.37-.546.67-.677 1.11-.49 2.288-.572 3.474-.496.688.044 1.372.133 2.01.464.383.199.638.484.83.852.087.166.08.282-.158.279-.55-.008-1.102-.004-1.653-.003-.087 0-.18.002-.215-.1-.155-.44-.555-.442-.899-.482-.398-.046-.806-.008-1.21-.014-.273-.003-.502.136-.7.283-.155.115-.19.302.019.492.357.326.8.265 1.21.343.873.166 1.77.164 2.629.442.314.102.614.218.881.404.703.49.594 1.48-.22 2-.71.457-1.518.564-2.337.603-.269.012-.538.002-.807.002ZM15.737 16.52c-.527.022-1.027-.106-1.537-.145-1.118-.085-2.223-.28-3.325-.467-1.025-.175-2.056-.361-3.03-.745-.785-.308-1.487-.721-1.94-1.51-.446-.77-.196-1.432.174-2.096.13-.235.32-.431.558-.586.643-.415 1.138-.088 1.6.317.731.64 1.508 1.215 2.284 1.793.966.72 1.975 1.376 2.995 2.013.678.423 1.379.812 2.069 1.215a.33.33 0 0 1 .15.212l.002-.001Zm27.963-.01c.005-.233.19-.177.292-.243 1.433-.927 2.915-1.772 4.306-2.77.905-.648 1.773-1.348 2.67-2.01.2-.146.353-.37.564-.493.794-.466 1.42-.098 1.86.714.16.295.314.612.33.978.038.888-.47 1.467-1.096 1.93-.566.422-1.252.639-1.92.838-.614.182-1.255.27-1.885.39-1.207.232-2.418.439-3.646.525-.486.035-.96.192-1.474.14Z"/></svg>